<svg xmlns="http://www.w3.org/2000/svg" xmlns:xlink="http://www.w3.org/1999/xlink" version="1.2" baseProfile="tiny" x="0px" y="0px" viewBox="0 0 100 29.4" xml:space="preserve">
<path fill="#FFF" d="M97.8,0.2v4.6l1.6,0.2l0.3,0.7l0.3,0.5l-0.3,0.4L99,6.8l-0.4-0.1H98L97.3,8l-1.4-0.5H84.5l-0.6,0.8l-0.7-0.5  h-8.2L75,8.5H62.1l-1.5,0.8l-1.1,0.6L58.7,10l-0.9-0.2c-0.2,0-0.3-0.1-0.3-0.3l-0.6-0.3H51c0,1.4,0.3,2.9,1,4.5  c0.6,1.4,1.4,2.8,2.6,4.4c1.3,1.6,3.1,3.3,5.4,4.9l-0.8,0.9l    -1.4,2.2l-2,3.1c-1.7-1.2-3.3-2.6-4.8-4.2c-1.4-1.4-2.7-3.1-4.2-5.2  c-1.4-2-2.6-4.5-3.5-7.3H43l-0.3,0.3l-1.3-0.3c-0.7,0.3-1.4,0.6-2,0.8l-2,0.1c-0.8-0.1-1.5-0.4-2.3-1l-0.9,0.7L32.7,15  c-0.6,0.7-1.2,1.5-1.7,2.4c-0.5,0.9-0.9,1.6-1.1,2.5l-0.8,0.3l-1.7,0.3c-0.6,0-1.2-0.1-1.8-0.4c-0.5-0.3-0.9-1-1-2l0.7-1.4l1.3-2.4  l1.3-2.4l0.8-1l-0.8-0.5c-0.3-0.3-0.7-0.5-1.1-0.4l-0.9,0.3L24,11l-2.6,0.9l-2.9,1L11,15.7L0.9,19L0,7.1c0.4-0.3,0.9-0.6,1.6-0.8  l1.9-0.5l2.2,0.1l1.9-0.1l4.2-0.3L17.9,5l1.2,0.4l1.8,0.4L22,5.6l1.8-0.4l2.4-0.8l3.9-3.3l0.3,0.3h23.6l0.3-0.3  c0.1-0.1,0.3-0.2,0.4-0.3l1-0.1L74,1l1,0.3l0.9,0.3l0.8,0.3h7.6l1.2,1.4l1,1.1l0.8,0.5h6.7l0.5-0.2l0.8-1.6l0.5-1.3  C95.8,1.4,95.9,1.1,96,1l0.2-0.7V0h1.6 M39.6,9.7h-2.3c-0.4,0-0.9,0.1-1.2,0.4c-0.3,0.3-0.4,0.7-0.4,1.1c0,0.3,0.2,0.7,0.4,1  c0.3,0.3,0.8,0.4,1.2,0.4h2.3c0.4,0,0.8-0.2,1-0.4l0.3-1c0-0.4-0.1-0.9-0.3-1.1C40.4,9.8,40.1,9.7,39.6,9.7"/>
</svg>