<svg xmlns="http://www.w3.org/2000/svg" viewBox="0 0 231.884 231.884">
    <g>
        <polygon style="fill:#4ddbff;" points="110.327,15.329 65.057,80.069 40.085,15.657"/>
        <polygon style="fill:#4ddbff;" points="35.24,19.685 59.8,83.029 0,82.665"/>
        <polygon style="fill:#4ddbff;" points="1.301,88.638 62.067,89.014 107.171,216.556"/>
        <polygon style="fill:#4ddbff;" points="112.643,214.127 68.41,89.05 112.917,89.324"/>
        <polygon style="fill:#4ddbff;" points="112.935,83.357 70.218,83.095 112.845,22.137 113.072,21.821 112.959,71.823"/>
        <polygon style="fill:#4ddbff;" points="231.884,82.665 172.085,83.029 196.638,19.685"/>
        <polygon style="fill:#4ddbff;" points="191.799,15.657 166.828,80.069 121.557,15.329"/>
        <polygon style="fill:#4ddbff;" points="118.926,71.823 118.812,21.821 119.033,22.137 161.666,83.095 118.95,83.357"/>
        <polygon style="fill:#4ddbff;" points="118.961,89.324 163.474,89.05 119.242,214.127"/>
        <polygon style="fill:#4ddbff;" points="124.714,216.556 169.817,89.014 230.584,88.638"/>
    </g>
</svg>